<?xml version="1.0" encoding="UTF-8"?>
<svg width="781px" height="121px" viewBox="0 0 781 121" version="1.1" xmlns="http://www.w3.org/2000/svg" xmlns:xlink="http://www.w3.org/1999/xlink">
    <!-- Generator: Sketch 43.2 (39069) - http://www.bohemiancoding.com/sketch -->
    <title>fb</title>
    <desc>Created with Sketch.</desc>
    <defs></defs>
    <g id="Page-1" stroke="none" stroke-width="1" fill="none" fill-rule="evenodd">
        <g id="fb" fill="#3E3E40">
            <path d="M18.3828125,110.8125 C19.1796915,110.671874 19.9531213,110.484376 20.703125,110.25 L30.3359375,119.8125 C29.5390585,120.046876 28.7421915,120.234374 27.9453125,120.375 L18.3828125,110.8125 Z M15.7109375,111.023437 L25.2734375,120.65625 C24.3359328,120.65625 23.2812559,120.562501 22.109375,120.375 L12.546875,110.8125 C13.6718806,110.953126 14.7265576,111.023437 15.7109375,111.023437 Z M8.6796875,109.828125 L18.2421875,119.390625 C15.7109248,118.499996 13.6250082,117.210946 11.984375,115.523437 L2.421875,105.960937 C4.10938344,107.648446 6.19530008,108.937496 8.6796875,109.828125 Z M32.375,119.039062 L22.8125,109.40625 C23.3750028,109.124999 24.007809,108.77344 24.7109375,108.351562 L34.2734375,117.984375 C33.6171842,118.359377 32.984378,118.710936 32.375,119.039062 Z M26.328125,107.15625 C26.7968773,106.734373 27.2890599,106.24219 27.8046875,105.679687 L37.4375,115.242187 C36.8749972,115.851566 36.3828146,116.343748 35.9609375,116.71875 L26.328125,107.15625 Z M11.703125,92.4609375 L11.703125,89.578125 L17.8203125,95.6953125 C17.4453106,96.3515658 16.953128,96.8203111 16.34375,97.1015625 L11.703125,92.4609375 Z M38.703125,113.695312 L29.0703125,104.0625 C29.4921896,103.453122 29.8671859,102.843753 30.1953125,102.234375 L39.7578125,111.796875 C39.4765611,112.406253 39.1250021,113.039059 38.703125,113.695312 Z M18.453125,93.375 L11.703125,86.6953125 L11.703125,83.671875 L18.453125,90.4921875 L18.453125,93.375 Z M41.3046875,107.507812 C41.1171866,108.304691 40.9062512,109.054684 40.671875,109.757812 L31.0390625,100.195312 C31.3203139,99.4453087 31.5312493,98.671879 31.671875,97.875 L41.3046875,107.507812 Z M41.65625,104.976562 L32.09375,95.34375 C32.1406252,94.8281224 32.1640625,94.2421908 32.1640625,93.5859375 L32.1640625,92.4609375 L41.7265625,102.09375 L41.7265625,103.21875 C41.7265625,103.828128 41.7031252,104.41406 41.65625,104.976562 Z M18.453125,84.65625 L18.453125,87.609375 L11.703125,80.7890625 L11.703125,77.90625 L18.453125,84.65625 Z M18.453125,81.7734375 L11.703125,75.0234375 L11.703125,72.0703125 L18.453125,78.8203125 L18.453125,81.7734375 Z M41.7265625,99.2109375 L32.1640625,89.6484375 L32.1640625,86.6953125 L41.7265625,96.2578125 L41.7265625,99.2109375 Z M18.453125,75.9375 L11.703125,69.1875 L11.703125,66.796875 L18.3828125,73.546875 C18.4296877,74.1093778 18.453125,74.6484349 18.453125,75.1640625 L18.453125,75.9375 Z M32.1640625,83.7421875 L32.1640625,80.859375 L41.7265625,90.421875 L41.7265625,93.375 L32.1640625,83.7421875 Z M41.7265625,87.5390625 L32.1640625,77.9765625 L32.1640625,75.0234375 L41.7265625,84.5859375 L41.7265625,87.5390625 Z M31.953125,71.9296875 C31.8593745,70.8515571 31.6953137,69.7031311 31.4609375,68.484375 L41.09375,78.1171875 C41.3281262,79.3359436 41.492187,80.4843696 41.5859375,81.5625 L31.953125,71.9296875 Z M40.109375,74.25 L30.546875,64.6875 C30.0312474,63.093742 29.3984412,61.4765707 28.6484375,59.8359375 L38.28125,69.46875 C39.1250042,71.2031337 39.7343731,72.7968677 40.109375,74.25 Z M22.7421875,51.046875 C22.3203104,50.4843722 21.5937552,49.5703188 20.5625,48.3046875 C17.7031107,44.7421697 15.5937568,41.8359488 14.234375,39.5859375 L23.8671875,49.21875 C25.0859436,51.2343851 27.1952975,54.1171688 30.1953125,57.8671875 C31.1796924,59.1328188 31.8828104,60.0468722 32.3046875,60.609375 L22.7421875,51.046875 Z M21.96875,44.4375 L12.3359375,34.8046875 C12.1015613,33.7734323 11.9140632,32.6015691 11.7734375,31.2890625 L21.3359375,40.921875 C21.429688,42.0937559 21.6406234,43.2656191 21.96875,44.4375 Z M19.7890625,36.421875 L22.7421875,36.421875 L32.375,46.0546875 L29.3515625,46.0546875 L19.7890625,36.421875 Z M18.453125,35.0859375 L11.703125,28.3359375 L11.703125,25.3828125 L18.453125,32.1328125 L18.453125,35.0859375 Z M35.1875,46.0546875 L25.625,36.421875 L28.578125,36.421875 L38.140625,46.0546875 L35.1875,46.0546875 Z M11.703125,22.5 L11.703125,19.546875 L18.453125,26.296875 L18.453125,29.25 L11.703125,22.5 Z M31.4609375,36.421875 L32.1640625,36.421875 L32.1640625,34.171875 L41.7265625,43.8046875 L41.7265625,46.0546875 L41.0234375,46.0546875 L31.4609375,36.421875 Z M18.453125,23.4140625 L11.703125,16.734375 C11.7968755,15.7968703 12.0312481,15.0234405 12.40625,14.4140625 L18.453125,20.4609375 L18.453125,23.4140625 Z M41.7265625,40.921875 L32.1640625,31.2890625 L32.1640625,28.3359375 L41.7265625,37.8984375 L41.7265625,40.921875 Z M13.953125,13.078125 C14.3750021,12.8906241 14.7968729,12.796875 15.21875,12.796875 C17.3750108,12.796875 18.453125,14.4140463 18.453125,17.6484375 L13.953125,13.078125 Z M32.1640625,25.453125 L32.1640625,22.5 L41.7265625,32.1328125 L41.7265625,35.015625 L32.1640625,25.453125 Z M41.7265625,29.25 L32.1640625,19.6171875 L32.1640625,16.6640625 L41.7265625,26.296875 L41.7265625,29.25 Z M31.8125,13.5 C31.5781238,11.9999925 31.1796903,10.5937566 30.6171875,9.28125 L40.25,18.9140625 C40.8125028,20.2734443 41.2109363,21.656243 41.4453125,23.0625 L31.8125,13.5 Z M29.984375,34.2421875 L20.6328125,34.2421875 L20.6328125,17.578125 C20.6328125,12.9374768 18.828143,10.6171875 15.21875,10.6171875 C11.421856,10.6171875 9.5234375,12.8906023 9.5234375,17.4375 L9.5234375,29.3203125 C9.5234375,33.6797093 10.4843654,37.4765463 12.40625,40.7109375 C13.7656318,43.0546992 15.9452975,46.031232 18.9453125,49.640625 C23.3047093,54.9375265 26.0703066,59.039048 27.2421875,61.9453125 C29.0703216,66.1172084 29.984375,70.6640379 29.984375,75.5859375 L29.984375,93.5859375 C29.984375,98.1797105 28.5547018,101.906236 25.6953125,104.765625 C22.9765489,107.484389 19.5547081,108.84375 15.4296875,108.84375 C11.3984173,108.84375 7.90626477,107.671887 4.953125,105.328125 C1.76560906,102.843738 0.171875,99.5156459 0.171875,95.34375 L0.171875,68.9765625 L9.5234375,68.9765625 L9.5234375,92.4609375 C9.5234375,94.757824 10.1796809,96.5624934 11.4921875,97.875 C12.5703179,98.9531304 13.8359302,99.4921875 15.2890625,99.4921875 C16.6015691,99.4921875 17.7499951,99.0234422 18.734375,98.0859375 C20.0000063,96.8203062 20.6328125,95.039074 20.6328125,92.7421875 L20.6328125,75.1640625 C20.5859373,70.5702895 19.5546976,66.6328289 17.5390625,63.3515625 C16.2265559,61.1015512 13.9531412,58.1484558 10.71875,54.4921875 C6.40622844,49.6640384 3.71094289,45.9375131 2.6328125,43.3125 C0.992179297,39.7499822 0.171875,35.9062706 0.171875,31.78125 L0.171875,17.578125 C0.171875,12.7968511 1.7421718,8.8359532 4.8828125,5.6953125 C7.83595227,2.74217273 11.3515421,1.265625 15.4296875,1.265625 C19.3672072,1.265625 22.7187362,2.64842367 25.484375,5.4140625 C28.48439,8.4140775 29.984375,12.3046636 29.984375,17.0859375 L29.984375,34.2421875 Z M65.21875,110.179687 L68.171875,110.179687 L77.734375,119.742187 L74.78125,119.742187 L65.21875,110.179687 Z M62.3359375,110.179687 L71.8984375,119.742187 L69.015625,119.742187 L59.3828125,110.179687 L62.3359375,110.179687 Z M82.515625,115.804688 L72.8828125,106.171875 L72.8828125,103.289062 L82.515625,112.851562 L82.515625,115.804688 Z M82.515625,118.6875 L82.515625,119.742187 L80.6171875,119.742187 L71.0546875,110.179687 L72.8828125,110.179687 L72.8828125,109.054687 L82.515625,118.6875 Z M93.625,1.4765625 L103.257812,11.109375 L103.257812,14.0625 L93.625,4.5 L93.625,1.4765625 Z M82.7265625,110.179687 L85.6796875,110.179687 L95.2421875,119.742187 L92.2890625,119.742187 L82.7265625,110.179687 Z M79.984375,107.4375 L72.8828125,100.40625 L72.8828125,97.3828125 L79.984375,104.484375 L79.984375,107.4375 Z M98.125,119.742187 L88.5625,110.179687 L91.4453125,110.179687 L101.078125,119.742187 L98.125,119.742187 Z M72.8828125,94.5 L72.8828125,91.6171875 L79.984375,98.6484375 L79.984375,101.601562 L72.8828125,94.5 Z M93.625,109.476562 L93.625,106.523437 L103.257812,116.085937 L103.257812,119.039062 L93.625,109.476562 Z M79.984375,95.765625 L72.8828125,88.734375 L72.8828125,85.78125 L79.984375,92.8125 L79.984375,95.765625 Z M93.625,100.6875 L103.257812,110.25 L103.257812,113.203125 L93.625,103.640625 L93.625,100.6875 Z M93.625,97.8046875 L93.625,94.8515625 L103.257812,104.414062 L103.257812,107.367188 L93.625,97.8046875 Z M79.984375,86.9765625 L79.984375,89.9296875 L72.8828125,82.8984375 L72.8828125,79.9453125 L79.984375,86.9765625 Z M79.984375,84.09375 L72.8828125,77.0625 L72.8828125,74.109375 L79.984375,81.140625 L79.984375,84.09375 Z M93.625,91.96875 L93.625,89.015625 L103.257812,98.578125 L103.257812,101.53125 L93.625,91.96875 Z M79.984375,78.2578125 L72.8828125,71.2265625 L72.8828125,68.2734375 L79.984375,75.3046875 L79.984375,78.2578125 Z M103.257812,95.6953125 L93.625,86.1328125 L93.625,83.1796875 L103.257812,92.7421875 L103.257812,95.6953125 Z M72.8828125,65.390625 L72.8828125,62.4375 L79.984375,69.46875 L79.984375,72.421875 L72.8828125,65.390625 Z M93.625,80.296875 L93.625,77.34375 L103.257812,86.90625 L103.257812,89.859375 L93.625,80.296875 Z M79.984375,66.5859375 L74.5703125,61.171875 L77.5234375,61.171875 L79.984375,63.6328125 L79.984375,66.5859375 Z M103.257812,84.0234375 L93.625,74.4609375 L93.625,71.5078125 L103.257812,81.140625 L103.257812,84.0234375 Z M93.625,68.625 L93.625,65.671875 L103.257812,75.3046875 L103.257812,78.2578125 L93.625,68.625 Z M103.257812,72.421875 L93.625,62.7890625 L93.625,59.8359375 L103.257812,69.46875 L103.257812,72.421875 Z M93.625,56.953125 L93.625,54 L103.257812,63.6328125 L103.257812,66.5859375 L93.625,56.953125 Z M103.257812,60.75 L93.625,51.1171875 L93.625,48.1640625 L103.257812,57.796875 L103.257812,60.75 Z M93.625,45.28125 L93.625,42.328125 L103.257812,51.9609375 L103.257812,54.9140625 L93.625,45.28125 Z M103.257812,49.078125 L93.625,39.4453125 L93.625,36.4921875 L103.257812,46.125 L103.257812,49.078125 Z M93.625,33.609375 L93.625,30.65625 L103.257812,40.2890625 L103.257812,43.2421875 L93.625,33.609375 Z M103.257812,37.40625 L93.625,27.7734375 L93.625,24.8203125 L103.257812,34.453125 L103.257812,37.40625 Z M93.625,21.9375 L93.625,18.984375 L103.257812,28.6171875 L103.257812,31.5703125 L93.625,21.9375 Z M103.257812,25.734375 L93.625,16.171875 L93.625,13.1484375 L103.257812,22.78125 L103.257812,25.734375 Z M93.625,10.265625 L93.625,7.3828125 L103.257812,16.9453125 L103.257812,19.8984375 L93.625,10.265625 Z M73.234375,48.234375 L72.8828125,47.8828125 L72.8828125,44.9296875 L76.1875,48.234375 L73.234375,48.234375 Z M72.8828125,42.046875 L72.8828125,39.09375 L79.984375,46.125 L79.984375,48.234375 L79.0703125,48.234375 L72.8828125,42.046875 Z M79.984375,43.2421875 L72.8828125,36.2109375 L72.8828125,33.2578125 L79.984375,40.359375 L79.984375,43.2421875 Z M72.8828125,30.375 L72.8828125,27.421875 L79.984375,34.5234375 L79.984375,37.4765625 L72.8828125,30.375 Z M79.984375,31.640625 L72.8828125,24.5390625 L72.8828125,21.5859375 L79.984375,28.6875 L79.984375,31.640625 Z M72.8828125,18.703125 L72.8828125,15.75 L79.984375,22.8515625 L79.984375,25.8046875 L72.8828125,18.703125 Z M79.984375,19.96875 L72.8828125,12.9375 L72.8828125,9.9140625 L79.984375,17.015625 L79.984375,19.96875 Z M72.8828125,7.03125 L72.8828125,4.078125 L79.984375,11.1796875 L79.984375,14.1328125 L72.8828125,7.03125 Z M79.984375,8.296875 L72.8828125,1.1953125 L72.8828125,0 L79.984375,7.03125 L79.984375,8.296875 Z M61.421875,2.1796875 L70.7734375,2.1796875 L70.7734375,50.4140625 L82.1640625,50.4140625 L82.1640625,2.1796875 L91.515625,2.1796875 L91.515625,108 L82.1640625,108 L82.1640625,59.0625 L70.7734375,59.0625 L70.7734375,108 L61.421875,108 L61.421875,2.1796875 Z M142.78125,110.882812 C143.531254,110.742187 144.304684,110.531251 145.101562,110.25 L154.664062,119.882812 C153.867184,120.164064 153.093754,120.351562 152.34375,120.445312 L142.78125,110.882812 Z M140.179688,111.164062 L149.742188,120.726562 C149.32031,120.773438 149.015626,120.796875 148.828125,120.796875 C148.312497,120.796875 147.585942,120.75 146.648438,120.65625 L137.085938,111.023437 C138.023442,111.117188 138.843746,111.164062 139.546875,111.164062 L140.179688,111.164062 Z M133.359375,110.179687 L142.921875,119.742187 C140.437488,118.898433 138.304696,117.585946 136.523438,115.804687 L127.03125,106.3125 C128.765634,108.046884 130.874988,109.335933 133.359375,110.179687 Z M156.703125,119.039062 L147.140625,109.40625 C147.937504,109.031248 148.57031,108.679689 149.039062,108.351562 L158.601562,117.914062 C158.13281,118.242189 157.500004,118.617185 156.703125,119.039062 Z M150.65625,107.085937 C151.125002,106.66406 151.617185,106.171878 152.132812,105.609375 L161.695312,115.242187 C161.273435,115.757815 160.781253,116.249998 160.21875,116.71875 L150.65625,107.085937 Z M135.75,92.1796875 L135.75,89.296875 L141.9375,95.484375 C141.84375,96.1406283 141.492191,96.7499972 140.882812,97.3125 L135.75,92.1796875 Z M135.75,95.0625 L138.84375,98.2265625 C136.87499,98.132812 135.84375,97.0781351 135.75,95.0625 Z M162.960938,113.554688 L153.328125,103.992188 C153.703127,103.429685 154.078123,102.796879 154.453125,102.09375 L164.015625,111.726562 C163.781249,112.24219 163.42969,112.851559 162.960938,113.554688 Z M141.9375,92.6015625 L135.75,86.4140625 L135.75,83.390625 L141.9375,89.6484375 L141.9375,92.6015625 Z M165.421875,107.296875 C165.281249,108.046879 165.093751,108.820309 164.859375,109.617188 L155.226562,100.054688 C155.507814,99.2109333 155.718749,98.4375035 155.859375,97.734375 L165.421875,107.296875 Z M165.773438,104.695312 L156.140625,95.1328125 C156.1875,94.5234345 156.210938,94.0546891 156.210938,93.7265625 L156.210938,92.1796875 L165.773438,101.8125 L165.773438,104.695312 Z M141.9375,83.8125 L141.9375,86.765625 L135.75,80.578125 L135.75,77.625 L141.9375,83.8125 Z M141.9375,80.9296875 L135.75,74.7421875 L135.75,71.7890625 L141.9375,77.9765625 L141.9375,80.9296875 Z M165.773438,98.9296875 L156.210938,89.296875 L156.210938,86.4140625 L165.773438,95.9765625 L165.773438,98.9296875 Z M141.9375,75.09375 L135.75,68.90625 L135.75,65.953125 L141.9375,72.140625 L141.9375,75.09375 Z M156.210938,83.4609375 L156.210938,80.578125 L165.773438,90.140625 L165.773438,93.09375 L156.210938,83.4609375 Z M135.75,63.0703125 L135.75,60.1171875 L141.9375,66.3046875 L141.9375,69.2578125 L135.75,63.0703125 Z M165.773438,87.2578125 L156.210938,77.6953125 L156.210938,74.7421875 L165.773438,84.3046875 L165.773438,87.2578125 Z M141.9375,63.421875 L135.75,57.234375 L135.75,54.28125 L141.9375,60.46875 L141.9375,63.421875 Z M156.210938,71.859375 L156.210938,68.90625 L165.773438,78.46875 L165.773438,81.421875 L156.210938,71.859375 Z M135.75,51.3984375 L135.75,48.4453125 L141.9375,54.6328125 L141.9375,57.5859375 L135.75,51.3984375 Z M165.773438,75.5859375 L156.210938,66.0234375 L156.210938,63.0703125 L165.773438,72.6328125 L165.773438,75.5859375 Z M141.9375,51.75 L135.75,45.5625 L135.75,42.609375 L141.9375,48.796875 L141.9375,51.75 Z M156.210938,60.1875 L156.210938,57.234375 L165.773438,66.796875 L165.773438,69.75 L156.210938,60.1875 Z M135.75,39.7265625 L135.75,36.7734375 L141.9375,42.9609375 L141.9375,45.9140625 L135.75,39.7265625 Z M165.773438,63.9140625 L156.210938,54.3515625 L156.210938,51.3984375 L165.773438,60.9609375 L165.773438,63.9140625 Z M141.9375,40.078125 L135.75,33.890625 L135.75,30.9375 L141.9375,37.125 L141.9375,40.078125 Z M156.210938,48.515625 L156.210938,45.5625 L165.773438,55.125 L165.773438,58.078125 L156.210938,48.515625 Z M135.75,28.0546875 L135.75,25.1015625 L141.9375,31.2890625 L141.9375,34.2421875 L135.75,28.0546875 Z M165.773438,52.2421875 L156.210938,42.6796875 L156.210938,39.7265625 L165.773438,49.359375 L165.773438,52.2421875 Z M141.9375,28.40625 L135.75,22.21875 L135.75,19.265625 L141.9375,25.453125 L141.9375,28.40625 Z M156.210938,36.84375 L156.210938,33.890625 L165.773438,43.453125 L165.773438,46.4765625 L156.210938,36.84375 Z M135.75,16.3828125 L135.75,15.8203125 C135.75,15.0703088 135.867186,14.4140653 136.101562,13.8515625 L141.9375,19.6171875 L141.9375,22.5703125 L135.75,16.3828125 Z M165.773438,40.640625 L156.210938,31.0078125 L156.210938,28.0546875 L165.773438,37.6171875 L165.773438,40.640625 Z M141.9375,16.734375 L137.578125,12.375 C138.093753,12.1874991 138.539061,12.09375 138.914062,12.09375 C140.929698,12.09375 141.9375,13.242176 141.9375,15.5390625 L141.9375,16.734375 Z M156.210938,25.171875 L156.210938,22.21875 L165.773438,31.8515625 L165.773438,34.8046875 L156.210938,25.171875 Z M165.773438,28.96875 L156.210938,19.3359375 L156.210938,16.3828125 L165.773438,26.015625 L165.773438,28.96875 Z M156.070312,13.359375 C155.835936,11.8593675 155.46094,10.5000061 154.945312,9.28125 L164.507812,18.9140625 C165.02344,20.0859434 165.398436,21.4453048 165.632812,22.9921875 L156.070312,13.359375 Z M154.03125,15.5390625 L154.03125,93.7265625 C154.03125,98.3672107 152.648451,102.070299 149.882812,104.835938 C147.117174,107.601576 143.625021,108.984375 139.40625,108.984375 C134.953103,108.984375 131.296889,107.554702 128.4375,104.695312 C125.531235,101.789048 124.078125,97.8515873 124.078125,92.8828125 L124.078125,16.59375 C124.078125,10.7812209 125.343737,6.72657398 127.875,4.4296875 C130.218762,2.32030195 133.851538,1.265625 138.773438,1.265625 C143.320335,1.265625 147.023423,2.6952982 149.882812,5.5546875 C152.648451,8.32032633 154.03125,11.648418 154.03125,15.5390625 Z M144.117188,95.34375 L144.117188,15.5390625 C144.117188,13.8984293 143.554693,12.5156306 142.429688,11.390625 C141.445308,10.4062451 140.273444,9.9140625 138.914062,9.9140625 C135.351545,9.9140625 133.570312,11.8827928 133.570312,15.8203125 L133.570312,94.78125 C133.570312,96.4218832 134.085932,97.7578073 135.117188,98.7890625 C136.148443,99.8203177 137.414055,100.335937 138.914062,100.335937 C140.226569,100.335937 141.42187,99.7968804 142.5,98.71875 C143.57813,97.6874948 144.117188,96.5625061 144.117188,95.34375 Z M228.429688,67.2890625 L228.21875,64.125 L228.710938,64.546875 L228.5,67.2890625 L228.429688,67.2890625 Z M228.851562,61.875 L228.007812,61.03125 L227.796875,57.796875 L229.0625,59.0625 L228.851562,61.875 Z M227.585938,54.703125 L227.375,51.5390625 L229.414062,53.6484375 L229.273438,56.390625 L227.585938,54.703125 Z M229.625,50.90625 L227.164062,48.4453125 L226.882812,45.28125 L229.835938,48.234375 L229.625,50.90625 Z M226.671875,42.1875 L226.460938,39.0234375 L230.1875,42.75 L230.046875,45.4921875 L226.671875,42.1875 Z M230.398438,40.078125 L226.25,35.9296875 L226.039062,32.6953125 L230.609375,37.265625 L230.398438,40.078125 Z M225.828125,29.6015625 L225.617188,26.4375 L230.960938,31.8515625 L230.820312,34.59375 L225.828125,29.6015625 Z M231.171875,29.1796875 L225.335938,23.34375 L225.125,20.1796875 L231.382812,26.3671875 L231.171875,29.1796875 Z M224.914062,17.0859375 L224.703125,13.921875 L231.734375,20.953125 L231.523438,23.6953125 L224.914062,17.0859375 Z M231.945312,18.28125 L224.492188,10.828125 L224.28125,7.6640625 L232.15625,15.5390625 L231.945312,18.28125 Z M224.070312,4.5 L223.789062,1.3359375 L232.507812,10.0546875 L232.296875,12.796875 L224.070312,4.5 Z M205.15625,119.742187 L195.59375,110.179687 L198.546875,110.179687 L208.109375,119.742187 L205.15625,119.742187 Z M202.273438,119.742187 L199.601562,119.742187 L190.039062,110.179687 L192.710938,110.179687 L202.273438,119.742187 Z M207.265625,110.179687 L210.21875,110.179687 L219.78125,119.742187 L216.828125,119.742187 L207.265625,110.179687 Z M204.382812,110.179687 L213.945312,119.742187 L210.992188,119.742187 L201.429688,110.179687 L204.382812,110.179687 Z M228.5,119.742187 L218.9375,110.179687 L221.820312,110.179687 L231.453125,119.742187 L228.5,119.742187 Z M221.257812,115.382812 L221.046875,118.125 L211.414062,108.5625 L211.625,105.75 L221.257812,115.382812 Z M211.835938,103.078125 L211.976562,100.335938 L217.53125,105.820312 L217.742188,108.984375 L211.835938,103.078125 Z M246.289062,9.2109375 L246.5,6.46875 L256.0625,16.03125 L255.851562,18.7734375 L246.289062,9.2109375 Z M246.078125,11.8828125 L255.710938,21.515625 L255.5,24.2578125 L245.867188,14.6953125 L246.078125,11.8828125 Z M224.703125,110.179687 L227.726562,110.179687 L237.289062,119.742187 L234.335938,119.742187 L224.703125,110.179687 Z M217.320312,102.796875 L212.1875,97.59375 L212.398438,94.8515625 L217.109375,99.6328125 L217.320312,102.796875 Z M256.273438,13.359375 L246.640625,3.796875 L246.851562,0.984375 L256.414062,10.6171875 L256.273438,13.359375 Z M240.171875,119.742187 L230.609375,110.179687 L233.492188,110.179687 L243.125,119.742187 L240.171875,119.742187 Z M212.539062,92.109375 L212.75,89.4375 L216.757812,93.375 L216.96875,96.5390625 L212.539062,92.109375 Z M236.375,110.179687 L239.117188,110.179687 L239.117188,109.96875 L248.75,119.53125 L248.75,119.742187 L246.007812,119.742187 L236.375,110.179687 Z M216.546875,90.3515625 L212.890625,86.6953125 L213.101562,83.953125 L216.335938,87.1171875 L216.546875,90.3515625 Z M239.539062,104.554687 L249.101562,114.117187 L248.960938,116.859375 L239.328125,107.296875 L239.539062,104.554687 Z M239.75,101.8125 L239.890625,99.0703125 L249.523438,108.703125 L249.3125,111.445312 L239.75,101.8125 Z M215.914062,80.9296875 L216.125,84.09375 L213.3125,81.2109375 L213.453125,78.46875 L215.914062,80.9296875 Z M215.773438,77.8359375 L213.664062,75.796875 L213.875,72.984375 L215.5625,74.671875 L215.773438,77.8359375 Z M201.007812,63.0703125 L200.304688,62.4375 L200.09375,59.2734375 L201.148438,60.328125 L201.007812,63.0703125 Z M200.796875,65.8125 L200.65625,67.5 L200.515625,65.53125 L200.796875,65.8125 Z M240.101562,96.3984375 L240.3125,93.65625 L249.945312,103.21875 L249.734375,105.960938 L240.101562,96.3984375 Z M215.351562,71.6484375 L214.015625,70.3125 L214.226562,67.5703125 L215.140625,68.484375 L215.351562,71.6484375 Z M199.882812,56.1796875 L199.671875,53.015625 L201.570312,54.9140625 L201.359375,57.65625 L199.882812,56.1796875 Z M250.085938,100.546875 L240.523438,90.9140625 L240.664062,88.171875 L250.296875,97.8046875 L250.085938,100.546875 Z M214.4375,64.828125 L214.578125,62.0859375 L214.71875,62.2265625 L214.929688,65.390625 L214.4375,64.828125 Z M201.78125,52.171875 L199.460938,49.8515625 L199.179688,46.6875 L201.921875,49.4296875 L201.78125,52.171875 Z M240.875,85.5 L241.085938,82.7578125 L250.648438,92.3203125 L250.507812,95.0625 L240.875,85.5 Z M198.96875,43.59375 L198.757812,40.4296875 L202.34375,44.015625 L202.132812,46.7578125 L198.96875,43.59375 Z M250.859375,89.6484375 L241.296875,80.015625 L241.4375,77.2734375 L251.070312,86.90625 L250.859375,89.6484375 Z M202.554688,41.2734375 L198.546875,37.3359375 L198.335938,34.171875 L202.695312,38.53125 L202.554688,41.2734375 Z M241.648438,74.6015625 L241.859375,71.859375 L251.421875,81.421875 L251.28125,84.234375 L241.648438,74.6015625 Z M198.125,31.078125 L197.914062,27.9140625 L203.117188,33.1171875 L202.90625,35.859375 L198.125,31.078125 Z M251.632812,78.75 L242.070312,69.1875 L242.210938,66.375 L251.84375,76.0078125 L251.632812,78.75 Z M203.328125,30.4453125 L197.703125,24.8203125 L197.421875,21.5859375 L203.46875,27.6328125 L203.328125,30.4453125 Z M242.421875,63.703125 L242.632812,60.9609375 L252.195312,70.5234375 L252.054688,73.265625 L242.421875,63.703125 Z M197.210938,18.4921875 L197,15.328125 L203.890625,22.21875 L203.679688,24.9609375 L197.210938,18.4921875 Z M252.40625,67.8515625 L242.773438,58.2890625 L242.984375,55.4765625 L252.617188,65.109375 L252.40625,67.8515625 Z M204.03125,19.546875 L196.789062,12.234375 L196.578125,9.0703125 L204.242188,16.734375 L204.03125,19.546875 Z M243.195312,52.8046875 L243.40625,50.0625 L252.96875,59.625 L252.757812,62.4375 L243.195312,52.8046875 Z M196.367188,5.9765625 L196.15625,2.8125 L204.664062,11.3203125 L204.453125,14.0625 L196.367188,5.9765625 Z M253.179688,56.953125 L243.546875,47.390625 L243.757812,44.578125 L253.390625,54.2109375 L253.179688,56.953125 Z M243.96875,41.90625 L244.179688,39.1640625 L253.742188,48.7265625 L253.53125,51.5390625 L243.96875,41.90625 Z M253.953125,46.0546875 L244.320312,36.4921875 L244.53125,33.6796875 L254.164062,43.3125 L253.953125,46.0546875 Z M244.742188,31.0078125 L244.953125,28.265625 L254.515625,37.828125 L254.304688,40.640625 L244.742188,31.0078125 Z M254.726562,35.15625 L245.09375,25.59375 L245.304688,22.78125 L254.9375,32.4140625 L254.726562,35.15625 Z M245.515625,20.109375 L245.65625,17.3671875 L255.289062,27 L255.078125,29.7421875 L245.515625,20.109375 Z M214.367188,33.8203125 L209.304688,108 L192.007812,108 L184.554688,2.1796875 L193.90625,2.1796875 L199.953125,87.9609375 L201.429688,87.9609375 L207.476562,2.1796875 L221.679688,2.1796875 L227.726562,87.9609375 L229.203125,87.9609375 L235.25,2.1796875 L244.601562,2.1796875 L237.148438,108 L219.851562,108 L215.070312,33.8203125 L214.367188,33.8203125 Z M292.632812,110.8125 C293.429691,110.671874 294.203121,110.484376 294.953125,110.25 L304.585938,119.8125 C303.789059,120.046876 302.992191,120.234374 302.195312,120.375 L292.632812,110.8125 Z M289.960938,111.023437 L299.523438,120.65625 C298.585933,120.65625 297.531256,120.562501 296.359375,120.375 L286.796875,110.8125 C287.921881,110.953126 288.976558,111.023437 289.960938,111.023437 Z M282.929688,109.828125 L292.492188,119.390625 C289.960925,118.499996 287.875008,117.210946 286.234375,115.523437 L276.671875,105.960937 C278.359383,107.648446 280.4453,108.937496 282.929688,109.828125 Z M306.625,119.039062 L297.0625,109.40625 C297.625003,109.124999 298.257809,108.77344 298.960938,108.351562 L308.523438,117.984375 C307.867184,118.359377 307.234378,118.710936 306.625,119.039062 Z M300.578125,107.15625 C301.046877,106.734373 301.53906,106.24219 302.054688,105.679687 L311.6875,115.242187 C311.124997,115.851566 310.632815,116.343748 310.210938,116.71875 L300.578125,107.15625 Z M285.953125,92.4609375 L285.953125,89.578125 L292.070312,95.6953125 C291.695311,96.3515658 291.203128,96.8203111 290.59375,97.1015625 L285.953125,92.4609375 Z M312.953125,113.695312 L303.320312,104.0625 C303.74219,103.453122 304.117186,102.843753 304.445312,102.234375 L314.007812,111.796875 C313.726561,112.406253 313.375002,113.039059 312.953125,113.695312 Z M292.703125,93.375 L285.953125,86.6953125 L285.953125,83.671875 L292.703125,90.4921875 L292.703125,93.375 Z M315.554688,107.507812 C315.367187,108.304691 315.156251,109.054684 314.921875,109.757812 L305.289062,100.195312 C305.570314,99.4453087 305.781249,98.671879 305.921875,97.875 L315.554688,107.507812 Z M315.90625,104.976562 L306.34375,95.34375 C306.390625,94.8281224 306.414062,94.2421908 306.414062,93.5859375 L306.414062,92.4609375 L315.976562,102.09375 L315.976562,103.21875 C315.976562,103.828128 315.953125,104.41406 315.90625,104.976562 Z M292.703125,84.65625 L292.703125,87.609375 L285.953125,80.7890625 L285.953125,77.90625 L292.703125,84.65625 Z M292.703125,81.7734375 L285.953125,75.0234375 L285.953125,72.0703125 L292.703125,78.8203125 L292.703125,81.7734375 Z M315.976562,99.2109375 L306.414062,89.6484375 L306.414062,86.6953125 L315.976562,96.2578125 L315.976562,99.2109375 Z M292.703125,75.9375 L285.953125,69.1875 L285.953125,66.796875 L292.632812,73.546875 C292.679688,74.1093778 292.703125,74.6484349 292.703125,75.1640625 L292.703125,75.9375 Z M306.414062,83.7421875 L306.414062,80.859375 L315.976562,90.421875 L315.976562,93.375 L306.414062,83.7421875 Z M315.976562,87.5390625 L306.414062,77.9765625 L306.414062,75.0234375 L315.976562,84.5859375 L315.976562,87.5390625 Z M306.203125,71.9296875 C306.109375,70.8515571 305.945314,69.7031311 305.710938,68.484375 L315.34375,78.1171875 C315.578126,79.3359436 315.742187,80.4843696 315.835938,81.5625 L306.203125,71.9296875 Z M314.359375,74.25 L304.796875,64.6875 C304.281247,63.093742 303.648441,61.4765707 302.898438,59.8359375 L312.53125,69.46875 C313.375004,71.2031337 313.984373,72.7968677 314.359375,74.25 Z M296.992188,51.046875 C296.57031,50.4843722 295.843755,49.5703188 294.8125,48.3046875 C291.953111,44.7421697 289.843757,41.8359488 288.484375,39.5859375 L298.117188,49.21875 C299.335944,51.2343851 301.445298,54.1171688 304.445312,57.8671875 C305.429692,59.1328188 306.13281,60.0468722 306.554688,60.609375 L296.992188,51.046875 Z M296.21875,44.4375 L286.585938,34.8046875 C286.351561,33.7734323 286.164063,32.6015691 286.023438,31.2890625 L295.585938,40.921875 C295.679688,42.0937559 295.890623,43.2656191 296.21875,44.4375 Z M294.039062,36.421875 L296.992188,36.421875 L306.625,46.0546875 L303.601562,46.0546875 L294.039062,36.421875 Z M292.703125,35.0859375 L285.953125,28.3359375 L285.953125,25.3828125 L292.703125,32.1328125 L292.703125,35.0859375 Z M309.4375,46.0546875 L299.875,36.421875 L302.828125,36.421875 L312.390625,46.0546875 L309.4375,46.0546875 Z M285.953125,22.5 L285.953125,19.546875 L292.703125,26.296875 L292.703125,29.25 L285.953125,22.5 Z M305.710938,36.421875 L306.414062,36.421875 L306.414062,34.171875 L315.976562,43.8046875 L315.976562,46.0546875 L315.273438,46.0546875 L305.710938,36.421875 Z M292.703125,23.4140625 L285.953125,16.734375 C286.046875,15.7968703 286.281248,15.0234405 286.65625,14.4140625 L292.703125,20.4609375 L292.703125,23.4140625 Z M315.976562,40.921875 L306.414062,31.2890625 L306.414062,28.3359375 L315.976562,37.8984375 L315.976562,40.921875 Z M288.203125,13.078125 C288.625002,12.8906241 289.046873,12.796875 289.46875,12.796875 C291.625011,12.796875 292.703125,14.4140463 292.703125,17.6484375 L288.203125,13.078125 Z M306.414062,25.453125 L306.414062,22.5 L315.976562,32.1328125 L315.976562,35.015625 L306.414062,25.453125 Z M315.976562,29.25 L306.414062,19.6171875 L306.414062,16.6640625 L315.976562,26.296875 L315.976562,29.25 Z M306.0625,13.5 C305.828124,11.9999925 305.42969,10.5937566 304.867188,9.28125 L314.5,18.9140625 C315.062503,20.2734443 315.460936,21.656243 315.695312,23.0625 L306.0625,13.5 Z M304.234375,34.2421875 L294.882812,34.2421875 L294.882812,17.578125 C294.882812,12.9374768 293.078143,10.6171875 289.46875,10.6171875 C285.671856,10.6171875 283.773438,12.8906023 283.773438,17.4375 L283.773438,29.3203125 C283.773438,33.6797093 284.734365,37.4765463 286.65625,40.7109375 C288.015632,43.0546992 290.195297,46.031232 293.195312,49.640625 C297.554709,54.9375265 300.320307,59.039048 301.492188,61.9453125 C303.320322,66.1172084 304.234375,70.6640379 304.234375,75.5859375 L304.234375,93.5859375 C304.234375,98.1797105 302.804702,101.906236 299.945312,104.765625 C297.226549,107.484389 293.804708,108.84375 289.679688,108.84375 C285.648417,108.84375 282.156265,107.671887 279.203125,105.328125 C276.015609,102.843738 274.421875,99.5156459 274.421875,95.34375 L274.421875,68.9765625 L283.773438,68.9765625 L283.773438,92.4609375 C283.773438,94.757824 284.429681,96.5624934 285.742188,97.875 C286.820318,98.9531304 288.08593,99.4921875 289.539062,99.4921875 C290.851569,99.4921875 291.999995,99.0234422 292.984375,98.0859375 C294.250006,96.8203062 294.882812,95.039074 294.882812,92.7421875 L294.882812,75.1640625 C294.835937,70.5702895 293.804698,66.6328289 291.789062,63.3515625 C290.476556,61.1015512 288.203141,58.1484558 284.96875,54.4921875 C280.656228,49.6640384 277.960943,45.9375131 276.882812,43.3125 C275.242179,39.7499822 274.421875,35.9062706 274.421875,31.78125 L274.421875,17.578125 C274.421875,12.7968511 275.992172,8.8359532 279.132812,5.6953125 C282.085952,2.74217273 285.601542,1.265625 289.679688,1.265625 C293.617207,1.265625 296.968736,2.64842367 299.734375,5.4140625 C302.73439,8.4140775 304.234375,12.3046636 304.234375,17.0859375 L304.234375,34.2421875 Z M381.664062,110.179687 L384.617188,110.179687 L394.179688,119.742187 L391.226562,119.742187 L381.664062,110.179687 Z M378.78125,110.179687 L388.34375,119.742187 L385.460938,119.742187 L375.828125,110.179687 L378.78125,110.179687 Z M402.898438,119.742187 L393.335938,110.179687 L396.289062,110.179687 L405.851562,119.742187 L402.898438,119.742187 Z M397.414062,117.140625 L397.414062,119.742187 L397.0625,119.742187 L387.5,110.179687 L387.851562,110.179687 L387.851562,107.578125 L397.414062,117.140625 Z M387.851562,104.695312 L387.851562,101.742188 L391.789062,105.679688 L392.140625,108.914062 L387.851562,104.695312 Z M411.476562,2.8828125 L421.039062,12.4453125 L421.039062,15.46875 L411.476562,5.8359375 L411.476562,2.8828125 Z M399.171875,110.179687 L402.125,110.179687 L411.6875,119.742187 L408.734375,119.742187 L399.171875,110.179687 Z M391.507812,102.515625 L387.851562,98.859375 L387.851562,95.90625 L391.15625,99.2109375 L391.507812,102.515625 Z M414.570312,119.742187 L405.007812,110.179687 L407.890625,110.179687 L417.523438,119.742187 L414.570312,119.742187 Z M387.851562,93.0234375 L387.851562,90.0703125 L390.523438,92.7421875 L390.875,96.046875 L387.851562,93.0234375 Z M410.773438,110.179687 L411.476562,110.179687 L411.476562,107.859375 L421.039062,117.421875 L421.039062,119.742187 L420.40625,119.742187 L410.773438,110.179687 Z M390.242188,89.578125 L387.851562,87.1875 L387.851562,84.234375 L389.890625,86.2734375 L390.242188,89.578125 Z M411.476562,102.023438 L421.039062,111.65625 L421.039062,114.609375 L411.476562,104.976562 L411.476562,102.023438 Z M411.476562,99.140625 L411.476562,96.1875 L421.039062,105.820312 L421.039062,108.773438 L411.476562,99.140625 Z M389.257812,79.875 L389.609375,83.109375 L387.851562,81.3515625 L387.851562,78.3984375 L389.257812,79.875 Z M388.976562,76.640625 L387.851562,75.5859375 L387.851562,72.5625 L388.625,73.40625 L388.976562,76.640625 Z M411.476562,93.3046875 L411.476562,90.3515625 L421.039062,99.984375 L421.039062,102.9375 L411.476562,93.3046875 Z M388.34375,70.171875 L387.851562,69.75 L387.851562,66.7265625 L387.992188,66.9375 L388.34375,70.171875 Z M421.039062,97.1015625 L411.476562,87.46875 L411.476562,84.515625 L421.039062,94.1484375 L421.039062,97.1015625 Z M411.476562,81.6328125 L411.476562,78.6796875 L421.039062,88.3125 L421.039062,91.265625 L411.476562,81.6328125 Z M421.039062,85.4296875 L411.476562,75.796875 L411.476562,72.84375 L421.039062,82.4765625 L421.039062,85.4296875 Z M411.476562,69.9609375 L411.476562,67.078125 L421.039062,76.640625 L421.039062,79.59375 L411.476562,69.9609375 Z M421.039062,73.7578125 L411.476562,64.1953125 L411.476562,61.171875 L421.039062,70.8046875 L421.039062,73.7578125 Z M411.476562,58.2890625 L411.476562,55.40625 L421.039062,64.96875 L421.039062,67.921875 L411.476562,58.2890625 Z M421.039062,62.0859375 L411.476562,52.5234375 L411.476562,49.5703125 L421.039062,59.1328125 L421.039062,62.0859375 Z M398.046875,39.09375 L397.765625,38.8125 L397.414062,35.5078125 L398.046875,36.140625 L398.046875,39.09375 Z M411.476562,46.6875 L411.476562,43.734375 L421.039062,53.296875 L421.039062,56.25 L411.476562,46.6875 Z M397.132812,32.34375 L396.78125,29.0390625 L398.046875,30.3046875 L398.046875,33.2578125 L397.132812,32.34375 Z M421.039062,50.4140625 L411.476562,40.8515625 L411.476562,37.8984375 L421.039062,47.4609375 L421.039062,50.4140625 Z M398.046875,27.421875 L396.5,25.875 L396.148438,22.5703125 L398.046875,24.46875 L398.046875,27.421875 Z M411.476562,35.015625 L411.476562,32.0625 L421.039062,41.625 L421.039062,44.578125 L411.476562,35.015625 Z M395.867188,19.40625 L395.515625,16.1015625 L398.046875,18.6328125 L398.046875,21.5859375 L395.867188,19.40625 Z M421.039062,38.7421875 L411.476562,29.1796875 L411.476562,26.2265625 L421.039062,35.7890625 L421.039062,38.7421875 Z M398.046875,15.75 L395.234375,12.9375 L394.953125,9.703125 L398.046875,12.796875 L398.046875,15.75 Z M411.476562,23.34375 L411.476562,20.390625 L421.039062,30.0234375 L421.039062,32.90625 L411.476562,23.34375 Z M394.601562,6.46875 L394.320312,3.234375 L398.046875,7.03125 L398.046875,9.9140625 L394.601562,6.46875 Z M421.039062,27.140625 L411.476562,17.5078125 L411.476562,14.5546875 L421.039062,24.1171875 L421.039062,27.140625 Z M398.046875,4.1484375 L393.96875,0 L398.046875,4.078125 L398.046875,4.1484375 Z M411.476562,11.671875 L411.476562,8.71875 L421.039062,18.3515625 L421.039062,21.234375 L411.476562,11.671875 Z M409.296875,2.1796875 L409.296875,108 L394.179688,108 L385.671875,20.7421875 L385.671875,108 L376.460938,108 L376.460938,2.1796875 L392,2.1796875 L400.226562,86.5546875 L400.226562,2.1796875 L409.296875,2.1796875 Z M453.882812,92.0390625 L453.882812,89.015625 L462.039062,97.171875 L459.085938,97.171875 L453.882812,92.0390625 Z M453.882812,94.8515625 L456.203125,97.171875 L453.882812,97.171875 L453.882812,94.8515625 Z M453.882812,83.25 L463.515625,92.8125 L463.515625,95.765625 L453.882812,86.1328125 L453.882812,83.25 Z M453.882812,80.3671875 L453.882812,77.4140625 L463.515625,86.9765625 L463.515625,89.9296875 L453.882812,80.3671875 Z M453.882812,74.53125 L453.882812,71.578125 L463.515625,81.140625 L463.515625,84.09375 L453.882812,74.53125 Z M463.515625,78.2578125 L453.882812,68.625 L453.882812,65.7421875 L463.515625,75.3046875 L463.515625,78.2578125 Z M453.882812,62.859375 L453.882812,61.171875 L455.21875,61.171875 L464.78125,70.8046875 L463.515625,70.8046875 L463.515625,72.421875 L453.882812,62.859375 Z M467.664062,70.8046875 L458.101562,61.171875 L461.054688,61.171875 L470.617188,70.8046875 L467.664062,70.8046875 Z M463.9375,61.171875 L466.257812,61.171875 L466.257812,60.609375 L475.890625,70.171875 L475.890625,70.8046875 L473.5,70.8046875 L463.9375,61.171875 Z M475.890625,67.359375 L466.257812,57.7265625 L466.257812,54.7734375 L475.890625,64.3359375 L475.890625,67.359375 Z M466.257812,51.890625 L466.257812,48.9375 L475.890625,58.5703125 L475.890625,61.453125 L466.257812,51.890625 Z M442,110.179687 L444.953125,110.179687 L454.585938,119.742187 L451.632812,119.742187 L442,110.179687 Z M463.304688,119.742187 L453.671875,110.179687 L456.625,110.179687 L466.1875,119.742187 L463.304688,119.742187 Z M460.421875,119.742187 L457.46875,119.742187 L447.835938,110.179687 L450.789062,110.179687 L460.421875,119.742187 Z M459.507812,110.179687 L462.460938,110.179687 L472.023438,119.742187 L469.070312,119.742187 L459.507812,110.179687 Z M474.90625,119.742187 L465.34375,110.179687 L466.257812,110.179687 L466.257812,108.140625 L475.890625,117.773437 L475.890625,119.742187 L474.90625,119.742187 Z M466.257812,105.257812 L466.257812,102.304688 L475.890625,111.9375 L475.890625,114.890625 L466.257812,105.257812 Z M475.890625,109.054688 L466.257812,99.421875 L466.257812,97.171875 L475.890625,106.804688 L475.890625,109.054688 Z M455.921875,48.234375 L453.882812,46.265625 L453.882812,43.2421875 L458.875,48.234375 L455.921875,48.234375 Z M453.882812,40.359375 L453.882812,37.4765625 L463.515625,47.0390625 L463.515625,48.234375 L461.757812,48.234375 L453.882812,40.359375 Z M463.515625,44.15625 L453.882812,34.59375 L453.882812,31.640625 L463.515625,41.203125 L463.515625,44.15625 Z M453.882812,28.7578125 L453.882812,25.8046875 L463.515625,35.3671875 L463.515625,38.3203125 L453.882812,28.7578125 Z M463.515625,32.484375 L453.882812,22.921875 L453.882812,19.96875 L463.515625,29.53125 L463.515625,32.484375 Z M453.882812,17.0859375 L453.882812,14.1328125 L463.515625,23.6953125 L463.515625,26.6484375 L453.882812,17.0859375 Z M465.203125,22.5703125 L455.640625,12.9375 L458.59375,12.9375 L468.15625,22.5703125 L465.203125,22.5703125 Z M461.40625,12.9375 L464.359375,12.9375 L473.992188,22.5703125 L471.039062,22.5703125 L461.40625,12.9375 Z M475.890625,21.5859375 L466.257812,11.953125 L466.257812,9 L475.890625,18.5625 L475.890625,21.5859375 Z M466.257812,6.1171875 L466.257812,3.1640625 L475.890625,12.796875 L475.890625,15.75 L466.257812,6.1171875 Z M475.890625,9.9140625 L466.257812,0.28125 L466.257812,0 L475.890625,9.6328125 L475.890625,9.9140625 Z M442.351562,2.1796875 L464.078125,2.1796875 L464.078125,10.828125 L451.703125,10.828125 L451.703125,50.4140625 L464.078125,50.4140625 L464.078125,59.0625 L451.703125,59.0625 L451.703125,99.3515625 L464.078125,99.3515625 L464.078125,108 L442.351562,108 L442.351562,2.1796875 Z M500.929688,110.179687 L503.882812,110.179687 L513.445312,119.742187 L510.492188,119.742187 L500.929688,110.179687 Z M498.046875,110.179687 L507.609375,119.742187 L504.726562,119.742187 L495.09375,110.179687 L498.046875,110.179687 Z M515.976562,113.554688 L506.414062,103.992188 L506.625,101.25 L516.257812,110.882812 L515.976562,113.554688 Z M515.765625,116.226562 L515.554688,118.96875 L505.921875,109.335937 L506.132812,106.59375 L515.765625,116.226562 Z M506.835938,98.6484375 L507.117188,95.90625 L516.679688,105.46875 L516.46875,108.210938 L506.835938,98.6484375 Z M533.835938,119.742187 L524.273438,110.179687 L527.15625,110.179687 L536.789062,119.742187 L533.835938,119.742187 Z M530.953125,119.742187 L528.070312,119.742187 L518.4375,110.179687 L521.390625,110.179687 L530.953125,119.742187 Z M516.960938,102.867188 L507.328125,93.234375 L507.609375,90.5625 L517.171875,100.125 L516.960938,102.867188 Z M530.039062,110.179687 L531.726562,110.179687 L531.585938,108.703125 L541.21875,118.335937 L541.289062,119.742187 L539.671875,119.742187 L530.039062,110.179687 Z M507.820312,87.890625 L508.03125,85.1484375 L517.242188,94.359375 L517.453125,97.1015625 L517.382812,97.5234375 L507.820312,87.890625 Z M531.09375,102.375 L540.65625,112.007812 L540.9375,115.171875 L531.304688,105.609375 L531.09375,102.375 Z M530.8125,99.28125 L530.53125,96.046875 L540.164062,105.609375 L540.445312,108.84375 L530.8125,99.28125 Z M512.460938,83.8125 L516.75,88.1015625 L516.960938,91.265625 L509.578125,83.8125 L512.460938,83.8125 Z M515.34375,83.8125 L516.398438,83.8125 L516.539062,84.9375 L515.34375,83.8125 Z M530.320312,92.8828125 L530.039062,89.71875 L539.671875,99.28125 L539.882812,102.515625 L530.320312,92.8828125 Z M539.390625,96.1171875 L529.757812,86.5546875 L529.546875,83.3203125 L539.109375,92.953125 L539.390625,96.1171875 Z M509.71875,66.4453125 L509.929688,63.7734375 L515.203125,69.046875 L515.34375,71.296875 L514.5,71.296875 L509.71875,66.4453125 Z M509.4375,69.1171875 L511.617188,71.296875 L509.296875,71.296875 L509.4375,69.1171875 Z M529.265625,80.2265625 L528.984375,76.9921875 L538.617188,86.5546875 L538.898438,89.7890625 L529.265625,80.2265625 Z M514.992188,65.8828125 L510.140625,61.1015625 L510.421875,58.359375 L514.710938,62.71875 L514.992188,65.8828125 Z M538.335938,83.4609375 L528.773438,73.828125 L528.492188,70.6640625 L538.054688,80.2265625 L538.335938,83.4609375 Z M510.632812,55.7578125 L510.84375,53.015625 L514.21875,56.390625 L514.5,59.5546875 L510.632812,55.7578125 Z M528.210938,67.5 L528,64.265625 L537.5625,73.8984375 L537.84375,77.0625 L528.210938,67.5 Z M514.007812,53.2265625 L511.125,50.34375 L511.335938,47.671875 L513.726562,50.0625 L514.007812,53.2265625 Z M537.351562,70.734375 L527.71875,61.171875 L527.4375,57.9375 L537.070312,67.5 L537.351562,70.734375 Z M511.546875,45 L511.828125,42.2578125 L513.234375,43.734375 L513.515625,46.8984375 L511.546875,45 Z M527.15625,54.7734375 L526.945312,51.609375 L536.507812,61.171875 L536.789062,64.40625 L527.15625,54.7734375 Z M513.023438,40.5703125 L512.039062,39.65625 L512.25,36.9140625 L512.742188,37.40625 L513.023438,40.5703125 Z M536.296875,58.078125 L526.664062,48.4453125 L526.382812,45.2109375 L536.015625,54.84375 L536.296875,58.078125 Z M526.171875,42.1171875 L525.890625,38.8828125 L535.523438,48.4453125 L535.734375,51.6796875 L526.171875,42.1171875 Z M535.242188,45.3515625 L525.609375,35.71875 L525.398438,32.5546875 L534.960938,42.1171875 L535.242188,45.3515625 Z M525.117188,29.390625 L524.835938,26.15625 L534.46875,35.7890625 L534.75,39.0234375 L525.117188,29.390625 Z M534.1875,32.625 L524.625,23.0625 L524.34375,19.828125 L533.90625,29.390625 L534.1875,32.625 Z M524.0625,16.6640625 L523.851562,13.5 L533.414062,23.0625 L533.695312,26.296875 L524.0625,16.6640625 Z M533.132812,19.96875 L523.570312,10.3359375 L523.289062,7.1015625 L532.921875,16.734375 L533.132812,19.96875 Z M523.007812,4.0078125 L522.796875,0.7734375 L532.359375,10.40625 L532.640625,13.5703125 L523.007812,4.0078125 Z M518.4375,81.6328125 L506.203125,81.6328125 L503.882812,108 L494.953125,108 L504.585938,2.1796875 L520.757812,2.1796875 L529.335938,108 L520.40625,108 L518.4375,81.6328125 Z M511.828125,17.71875 L506.90625,73.40625 L517.734375,73.40625 L513.375,17.71875 L511.828125,17.71875 Z M566.960938,110.179687 L569.914062,110.179687 L579.546875,119.742187 L576.59375,119.742187 L566.960938,110.179687 Z M564.078125,110.179687 L573.710938,119.742187 L570.757812,119.742187 L561.195312,110.179687 L564.078125,110.179687 Z M581.867188,113.414062 L572.304688,103.78125 L572.304688,100.828125 L581.867188,110.460938 L581.867188,113.414062 Z M581.867188,116.296875 L581.867188,119.25 L572.304688,109.617187 L572.304688,106.664062 L581.867188,116.296875 Z M594.101562,119.742187 L584.46875,110.179687 L587.421875,110.179687 L597.054688,119.742187 L594.101562,119.742187 Z M572.304688,97.9453125 L572.304688,94.9921875 L578.984375,101.742188 C579.125001,103.19532 579.382811,104.437495 579.757812,105.46875 L572.304688,97.9453125 Z M590.304688,110.179687 L593.257812,110.179687 L602.820312,119.742187 L599.9375,119.742187 L590.304688,110.179687 Z M578.914062,98.7890625 L572.304688,92.109375 L572.304688,89.2265625 L578.914062,95.8359375 L578.914062,98.7890625 Z M605.703125,119.742187 L596.140625,110.179687 L597.828125,110.179687 C595.156237,107.039047 593.679689,105.117191 593.398438,104.414062 L602.960938,114.046875 C603.242189,114.656253 603.734371,115.382808 604.4375,116.226562 L607.460938,119.742187 L605.703125,119.742187 Z M572.304688,86.34375 L572.304688,83.390625 L578.914062,90 L578.914062,92.953125 L572.304688,86.34375 Z M602.1875,107.4375 C602.1875,108.375005 602.234375,109.382807 602.328125,110.460938 L592.695312,100.898438 C592.648437,99.8203071 592.625,98.8125047 592.625,97.875 L602.1875,107.4375 Z M602.1875,104.554688 L592.625,94.9921875 L592.625,92.0390625 L602.1875,101.601562 L602.1875,104.554688 Z M572.304688,77.5546875 L578.914062,84.1640625 L578.914062,87.1171875 L572.304688,80.5078125 L572.304688,77.5546875 Z M572.304688,74.671875 L572.304688,71.71875 L578.914062,78.328125 L578.914062,81.28125 L572.304688,74.671875 Z M602.1875,98.71875 L592.625,89.15625 L592.625,86.203125 L602.1875,95.765625 L602.1875,98.71875 Z M572.304688,68.8359375 L572.304688,65.8828125 L578.914062,72.4921875 L578.914062,75.4453125 L572.304688,68.8359375 Z M592.625,83.25 L592.625,80.3671875 L602.1875,89.9296875 L602.1875,92.8828125 L592.625,83.25 Z M578.914062,69.609375 L572.304688,63 L572.304688,61.8046875 C573.101566,61.8515627 573.734373,61.8984373 574.203125,61.9453125 L578.84375,66.5859375 C578.890625,67.289066 578.914062,67.9453095 578.914062,68.5546875 L578.914062,69.609375 Z M602.1875,87.046875 L592.625,77.484375 L592.625,74.53125 L602.1875,84.09375 L602.1875,87.046875 Z M592.625,71.6484375 L592.625,68.6953125 L602.1875,78.2578125 L602.1875,81.2109375 L592.625,71.6484375 Z M602.1875,75.375 L592.554688,65.7421875 C592.507812,64.5234314 592.390626,63.4218799 592.203125,62.4375 L601.835938,72.0703125 C601.976563,73.0546924 602.09375,74.1562439 602.1875,75.375 Z M574.625,47.8125 L572.304688,45.4921875 L572.304688,42.5390625 L576.664062,46.8984375 C576.054684,47.3203146 575.375004,47.6249991 574.625,47.8125 Z M590.65625,58.078125 C589.812496,56.6249927 588.710944,55.3828177 587.351562,54.3515625 C587.914065,53.9296854 588.406248,53.5546891 588.828125,53.2265625 L598.390625,62.7890625 C598.015623,63.1640644 597.570315,63.5156234 597.054688,63.84375 L598.460938,65.25 C599.117191,65.9062533 599.72656,66.7031203 600.289062,67.640625 L590.65625,58.078125 Z M572.304688,39.65625 L572.304688,36.703125 L578.703125,43.1015625 C578.515624,44.0859424 578.281251,44.8593722 578,45.421875 L572.304688,39.65625 Z M599.796875,61.3125 L590.164062,51.75 C590.58594,51.1874972 590.960936,50.5781283 591.289062,49.921875 L600.921875,59.484375 C600.593748,60.1406283 600.218752,60.7499972 599.796875,61.3125 Z M578.914062,40.4296875 L572.304688,33.8203125 L572.304688,30.8671875 L578.914062,37.4765625 L578.914062,40.4296875 Z M592.0625,47.8125 C592.203126,47.1093715 592.343749,46.2421927 592.484375,45.2109375 L602.046875,54.7734375 C601.953125,55.8046927 601.835938,56.6718715 601.695312,57.375 L592.0625,47.8125 Z M572.304688,27.984375 L572.304688,25.03125 L578.914062,31.640625 L578.914062,34.59375 L572.304688,27.984375 Z M602.1875,52.03125 L592.554688,42.46875 L592.625,41.625 L592.625,39.515625 L602.1875,49.1484375 L602.1875,52.03125 Z M578.914062,28.7578125 L572.304688,22.1484375 L572.304688,19.1953125 L578.914062,25.8046875 L578.914062,28.7578125 Z M592.625,36.6328125 L592.625,33.6796875 L602.1875,43.3125 L602.1875,46.265625 L592.625,36.6328125 Z M572.304688,16.3125 L572.304688,13.7109375 L572.585938,13.7109375 L578.914062,20.0390625 L578.914062,22.921875 L572.304688,16.3125 Z M602.1875,40.4296875 L592.625,30.796875 L592.625,27.84375 L602.1875,37.40625 L602.1875,40.4296875 Z M578.773438,16.9453125 L575.75,13.921875 C577.484384,14.2968769 578.492186,15.3046793 578.773438,16.9453125 Z M592.625,24.9609375 L592.625,22.0078125 L602.1875,31.640625 L602.1875,34.59375 L592.625,24.9609375 Z M602.1875,28.7578125 L592.625,19.125 L592.625,16.875 L592.554688,16.171875 L602.1875,25.8046875 L602.1875,28.7578125 Z M592.34375,13.0078125 C592.062499,11.4140545 591.734377,10.1015677 591.359375,9.0703125 L600.921875,18.703125 C601.390627,19.8750059 601.718749,21.1874927 601.90625,22.640625 L592.34375,13.0078125 Z M560.773438,2.1796875 L576.945312,2.1796875 C585.945358,2.1796875 590.445312,7.07807602 590.445312,16.875 L590.445312,41.625 C590.398437,46.031272 589.60157,49.1484284 588.054688,50.9765625 C586.695306,52.3828195 584.562515,53.4374965 581.65625,54.140625 C585.031267,55.1718802 587.421868,56.835926 588.828125,59.1328125 C589.906255,61.0546971 590.445312,63.867169 590.445312,67.5703125 L590.445312,97.6640625 C590.492188,102.492212 591.406241,105.93749 593.1875,108 L583.835938,108 C581.960928,105.93749 581.046875,102.585961 581.09375,97.9453125 L581.09375,68.5546875 C581.046875,64.664043 580.06251,62.1328184 578.140625,60.9609375 C576.593742,60.070308 573.921894,59.625 570.125,59.625 L570.125,108 L560.773438,108 L560.773438,2.1796875 Z M570.125,11.53125 L570.125,50.4140625 C574.437522,50.3671873 577.414054,49.4765712 579.054688,47.7421875 C580.367194,46.24218 581.046875,43.7812671 581.09375,40.359375 L581.09375,19.0546875 C581.046875,15.8202963 580.156259,13.6875052 578.421875,12.65625 C577.109368,11.9062462 574.976577,11.53125 572.023438,11.53125 L570.125,11.53125 Z M676.382812,119.742187 L666.75,110.179687 L669.703125,110.179687 L679.335938,119.742187 L676.382812,119.742187 Z M673.5,119.742187 L672.867188,119.742187 L663.234375,110.179687 L663.867188,110.179687 L673.5,119.742187 Z M676.453125,108.210937 L676.523438,105.257812 L686.085938,114.890625 L686.085938,117.84375 L676.453125,108.210937 Z M675.539062,110.179687 L685.171875,119.742187 L682.21875,119.742187 L672.585938,110.179687 L675.539062,110.179687 Z M699.726562,119.742187 L690.09375,110.179687 L693.046875,110.179687 L702.609375,119.742187 L699.726562,119.742187 Z M696.84375,119.742187 L693.890625,119.742187 L684.257812,110.179687 L687.210938,110.179687 L696.84375,119.742187 Z M676.523438,102.445312 L676.523438,99.4921875 L681.09375,104.0625 L681.445312,107.367188 L676.523438,102.445312 Z M676.523438,96.609375 L676.59375,93.7265625 L680.460938,97.59375 L680.8125,100.828125 L676.523438,96.609375 Z M725.671875,17.4375 L716.109375,7.8046875 L716.109375,4.8515625 L725.671875,14.484375 L725.671875,17.4375 Z M725.671875,20.3203125 L725.671875,23.2734375 L716.109375,13.7109375 L716.109375,10.7578125 L725.671875,20.3203125 Z M695.929688,110.179687 L696.5625,110.179687 L696.773438,108.070312 L706.40625,117.632812 L706.195312,119.742187 L705.492188,119.742187 L695.929688,110.179687 Z M680.109375,94.359375 L676.59375,90.84375 L676.59375,87.890625 L679.828125,91.125 L680.109375,94.359375 Z M716.109375,2.0390625 L716.109375,0 L725.671875,9.6328125 L725.671875,11.6015625 L716.109375,2.0390625 Z M706.6875,115.03125 L697.054688,105.46875 L697.335938,102.796875 L702.539062,108 L702.539062,110.179688 L704.71875,110.179688 L714.28125,119.742188 L712.171875,119.742188 L706.757812,114.328125 L706.6875,115.03125 Z M676.59375,85.0078125 L676.664062,82.125 L679.195312,84.65625 L679.476562,87.890625 L676.59375,85.0078125 Z M707.601562,110.179687 L710.554688,110.179687 L720.117188,119.742187 L717.164062,119.742187 L707.601562,110.179687 Z M702.539062,105.117188 L697.617188,100.195312 L697.898438,97.5234375 L702.46875,102.09375 L702.539062,105.117188 Z M678.84375,81.421875 L676.664062,79.2421875 L676.664062,76.2890625 L678.492188,78.1171875 L678.84375,81.421875 Z M716.109375,109.898437 L725.671875,119.460937 L725.671875,119.742187 L723,119.742187 L713.4375,110.179687 L716.109375,110.179687 L716.109375,109.898437 Z M716.109375,107.015625 L716.109375,104.0625 L725.671875,113.625 L725.671875,116.578125 L716.109375,107.015625 Z M677.859375,71.6484375 L678.210938,74.953125 L676.734375,73.4765625 L676.734375,70.5234375 L677.859375,71.6484375 Z M677.578125,68.484375 L676.734375,67.640625 L676.734375,64.7578125 L677.226562,65.1796875 L677.578125,68.484375 Z M702.46875,96.2578125 L702.46875,99.2109375 L698.179688,94.921875 L698.460938,92.25 L702.46875,96.2578125 Z M702.398438,93.375 L698.742188,89.6484375 L699.023438,86.9765625 L702.398438,90.3515625 L702.398438,93.375 Z M716.109375,101.179688 L716.109375,98.2265625 L725.671875,107.859375 L725.671875,110.742188 L716.109375,101.179688 Z M702.398438,87.46875 L699.304688,84.375 L699.585938,81.703125 L702.328125,84.515625 L702.398438,87.46875 Z M676.875,62.015625 L676.804688,61.875 L676.804688,60.890625 L676.875,62.015625 Z M725.671875,104.90625 L716.109375,95.34375 L716.109375,92.390625 L725.671875,102.023438 L725.671875,104.90625 Z M699.867188,79.1015625 L700.148438,76.4296875 L702.328125,78.609375 L702.328125,81.5625 L699.867188,79.1015625 Z M716.109375,89.5078125 L716.109375,86.5546875 L725.671875,96.1875 L725.671875,99.140625 L716.109375,89.5078125 Z M702.257812,75.7265625 L700.429688,73.828125 L700.710938,71.2265625 L702.257812,72.703125 L702.257812,75.7265625 Z M725.671875,93.3046875 L716.109375,83.671875 L716.109375,80.71875 L725.671875,90.3515625 L725.671875,93.3046875 Z M700.992188,68.625 L701.273438,65.953125 L702.1875,66.8671875 L702.257812,69.8203125 L700.992188,68.625 Z M716.109375,77.8359375 L716.109375,74.8828125 L725.671875,84.515625 L725.671875,87.46875 L716.109375,77.8359375 Z M702.1875,63.9140625 L701.554688,63.3515625 L701.835938,60.6796875 L702.1875,60.9609375 L702.1875,63.9140625 Z M725.671875,81.6328125 L716.109375,72 L716.109375,69.046875 L725.671875,78.6796875 L725.671875,81.6328125 Z M716.109375,66.1640625 L716.109375,63.2109375 L725.671875,72.84375 L725.671875,75.796875 L716.109375,66.1640625 Z M725.671875,69.9609375 L716.109375,60.328125 L716.109375,57.375 L725.671875,67.0078125 L725.671875,69.9609375 Z M716.109375,54.4921875 L716.109375,51.5390625 L725.671875,61.171875 L725.671875,64.125 L716.109375,54.4921875 Z M725.671875,58.2890625 L716.109375,48.65625 L716.109375,45.703125 L725.671875,55.3359375 L725.671875,58.2890625 Z M716.109375,42.8203125 L716.109375,39.8671875 L725.671875,49.5 L725.671875,52.453125 L716.109375,42.8203125 Z M725.671875,46.6171875 L716.109375,36.984375 L716.109375,34.03125 L725.671875,43.6640625 L725.671875,46.6171875 Z M716.109375,31.1484375 L716.109375,28.265625 L725.671875,37.828125 L725.671875,40.78125 L716.109375,31.1484375 Z M725.671875,34.9453125 L716.109375,25.3828125 L716.109375,22.359375 L725.671875,31.9921875 L725.671875,34.9453125 Z M716.109375,19.4765625 L716.109375,16.59375 L725.671875,26.15625 L725.671875,29.109375 L716.109375,19.4765625 Z M688.898438,56.4609375 L688.546875,53.15625 L689.671875,54.28125 L689.390625,56.953125 L688.898438,56.4609375 Z M689.953125,51.6796875 L688.195312,49.9921875 L687.84375,46.6875 L690.234375,49.0078125 L689.953125,51.6796875 Z M687.492188,43.453125 L687.140625,40.1484375 L690.796875,43.734375 L690.515625,46.40625 L687.492188,43.453125 Z M691.078125,41.1328125 L686.789062,36.9140625 L686.4375,33.609375 L691.359375,38.4609375 L691.078125,41.1328125 Z M686.085938,30.375 L685.734375,27.0703125 L691.921875,33.1875 L691.570312,35.859375 L686.085938,30.375 Z M692.203125,30.5859375 L685.453125,23.8359375 L685.03125,20.53125 L692.484375,27.9140625 L692.203125,30.5859375 Z M684.75,17.296875 L684.398438,13.9921875 L693.046875,22.640625 L692.765625,25.3125 L684.75,17.296875 Z M693.257812,20.0390625 L684.046875,10.828125 L683.695312,7.5234375 L693.257812,17.0859375 L693.46875,18.5625 L693.257812,20.0390625 Z M683.34375,4.2890625 L682.992188,0.984375 L692.625,10.546875 L692.976562,13.8515625 L683.34375,4.2890625 Z M680.953125,2.1796875 L689.179688,79.3828125 L697.40625,2.1796875 L713.929688,2.1796875 L713.929688,108 L704.71875,108 L704.015625,20.3203125 L694.664062,108 L683.695312,108 L674.90625,20.3203125 L674.34375,108 L665.414062,108 L665.414062,2.1796875 L680.953125,2.1796875 Z M758.867188,92.0390625 L758.867188,89.015625 L767.023438,97.171875 L764.070312,97.171875 L758.867188,92.0390625 Z M758.867188,94.8515625 L761.1875,97.171875 L758.867188,97.171875 L758.867188,94.8515625 Z M758.867188,83.25 L768.5,92.8125 L768.5,95.765625 L758.867188,86.1328125 L758.867188,83.25 Z M758.867188,80.3671875 L758.867188,77.4140625 L768.5,86.9765625 L768.5,89.9296875 L758.867188,80.3671875 Z M758.867188,74.53125 L758.867188,71.578125 L768.5,81.140625 L768.5,84.09375 L758.867188,74.53125 Z M768.5,78.2578125 L758.867188,68.625 L758.867188,65.7421875 L768.5,75.3046875 L768.5,78.2578125 Z M758.867188,62.859375 L758.867188,61.171875 L760.203125,61.171875 L769.765625,70.8046875 L768.5,70.8046875 L768.5,72.421875 L758.867188,62.859375 Z M772.648438,70.8046875 L763.085938,61.171875 L766.039062,61.171875 L775.601562,70.8046875 L772.648438,70.8046875 Z M768.921875,61.171875 L771.242188,61.171875 L771.242188,60.609375 L780.875,70.171875 L780.875,70.8046875 L778.484375,70.8046875 L768.921875,61.171875 Z M780.875,67.359375 L771.242188,57.7265625 L771.242188,54.7734375 L780.875,64.3359375 L780.875,67.359375 Z M771.242188,51.890625 L771.242188,48.9375 L780.875,58.5703125 L780.875,61.453125 L771.242188,51.890625 Z M746.984375,110.179687 L749.9375,110.179687 L759.570312,119.742187 L756.617188,119.742187 L746.984375,110.179687 Z M768.289062,119.742187 L758.65625,110.179687 L761.609375,110.179687 L771.171875,119.742187 L768.289062,119.742187 Z M765.40625,119.742187 L762.453125,119.742187 L752.820312,110.179687 L755.773438,110.179687 L765.40625,119.742187 Z M764.492188,110.179687 L767.445312,110.179687 L777.007812,119.742187 L774.054688,119.742187 L764.492188,110.179687 Z M779.890625,119.742187 L770.328125,110.179687 L771.242188,110.179687 L771.242188,108.140625 L780.875,117.773437 L780.875,119.742187 L779.890625,119.742187 Z M771.242188,105.257812 L771.242188,102.304688 L780.875,111.9375 L780.875,114.890625 L771.242188,105.257812 Z M780.875,109.054688 L771.242188,99.421875 L771.242188,97.171875 L780.875,106.804688 L780.875,109.054688 Z M760.90625,48.234375 L758.867188,46.265625 L758.867188,43.2421875 L763.859375,48.234375 L760.90625,48.234375 Z M758.867188,40.359375 L758.867188,37.4765625 L768.5,47.0390625 L768.5,48.234375 L766.742188,48.234375 L758.867188,40.359375 Z M768.5,44.15625 L758.867188,34.59375 L758.867188,31.640625 L768.5,41.203125 L768.5,44.15625 Z M758.867188,28.7578125 L758.867188,25.8046875 L768.5,35.3671875 L768.5,38.3203125 L758.867188,28.7578125 Z M768.5,32.484375 L758.867188,22.921875 L758.867188,19.96875 L768.5,29.53125 L768.5,32.484375 Z M758.867188,17.0859375 L758.867188,14.1328125 L768.5,23.6953125 L768.5,26.6484375 L758.867188,17.0859375 Z M770.1875,22.5703125 L760.625,12.9375 L763.578125,12.9375 L773.140625,22.5703125 L770.1875,22.5703125 Z M766.390625,12.9375 L769.34375,12.9375 L778.976562,22.5703125 L776.023438,22.5703125 L766.390625,12.9375 Z M780.875,21.5859375 L771.242188,11.953125 L771.242188,9 L780.875,18.5625 L780.875,21.5859375 Z M771.242188,6.1171875 L771.242188,3.1640625 L780.875,12.796875 L780.875,15.75 L771.242188,6.1171875 Z M780.875,9.9140625 L771.242188,0.28125 L771.242188,0 L780.875,9.6328125 L780.875,9.9140625 Z M747.335938,2.1796875 L769.0625,2.1796875 L769.0625,10.828125 L756.6875,10.828125 L756.6875,50.4140625 L769.0625,50.4140625 L769.0625,59.0625 L756.6875,59.0625 L756.6875,99.3515625 L769.0625,99.3515625 L769.0625,108 L747.335938,108 L747.335938,2.1796875 Z" id="Shows-Near-Me"></path>
        </g>
    </g>
</svg>